<svg xmlns="http://www.w3.org/2000/svg" viewBox="0 0 512 512">
  <rect width="512" height="512" rx="96" fill="#0f172a"/>
  <!-- Page shape -->
  <rect x="112" y="80" width="288" height="352" rx="16" fill="#1e293b"/>
  <rect x="112" y="80" width="288" height="352" rx="16" fill="none" stroke="#6366f1" stroke-width="8"/>
  <!-- Accent bar left -->
  <rect x="112" y="80" width="16" height="352" rx="4" fill="#6366f1"/>
  <!-- Lines representing resume text -->
  <rect x="152" y="120" width="160" height="14" rx="7" fill="#6366f1"/>
  <rect x="152" y="145" width="100" height="10" rx="5" fill="#94a3b8"/>
  <rect x="152" y="185" width="200" height="10" rx="5" fill="#475569"/>
  <rect x="152" y="205" width="180" height="10" rx="5" fill="#475569"/>
  <rect x="152" y="225" width="160" height="10" rx="5" fill="#475569"/>
  <rect x="152" y="265" width="200" height="10" rx="5" fill="#475569"/>
  <rect x="152" y="285" width="140" height="10" rx="5" fill="#475569"/>
  <rect x="152" y="325" width="200" height="10" rx="5" fill="#475569"/>
  <rect x="152" y="345" width="160" height="10" rx="5" fill="#475569"/>
  <rect x="152" y="365" width="100" height="10" rx="5" fill="#475569"/>
</svg>
